<svg width="37" height="34" viewBox="0 0 37 34" fill="none" xmlns="http://www.w3.org/2000/svg">
<path d="M18.3441 14.2676C19.2809 14.2676 20.2086 14.0831 21.0741 13.7246C21.9396 13.3661 22.726 12.8406 23.3884 12.1782C24.0509 11.5157 24.5763 10.7293 24.9349 9.8638C25.2934 8.99829 25.4779 8.07063 25.4779 7.13381C25.4779 6.19698 25.2934 5.26933 24.9349 4.40382C24.5763 3.5383 24.0509 2.75188 23.3884 2.08944C22.726 1.42701 21.9396 0.901536 21.0741 0.543029C20.2086 0.184522 19.2809 -1.97421e-08 18.3441 0C16.4521 3.9871e-08 14.6376 0.751596 13.2997 2.08944C11.9619 3.42729 11.2103 5.2418 11.2103 7.13381C11.2103 9.02581 11.9619 10.8403 13.2997 12.1782C14.6376 13.516 16.4521 14.2676 18.3441 14.2676ZM0 31.9607V33.1836H27.5161C23.6435 28.088 29.5543 20.9542 35.7995 23.3675C35.0178 21.8335 33.7707 20.5863 32.2367 19.8047C30.4919 18.916 28.2091 18.916 23.6435 18.916H13.0447C8.47904 18.916 6.19622 18.916 4.4515 19.8047C2.91749 20.5863 1.67031 21.8335 0.888669 23.3675C2.78516e-07 25.1122 0 27.395 0 31.9607Z" fill="#C425FE"/>
<path d="M32.5202 24.5317C30.0437 24.5317 28.0361 26.5393 28.0361 29.0158C28.0361 31.4924 30.0437 33.5 32.5202 33.5C34.9968 33.5 37.0043 31.4924 37.0043 29.0158C37.0043 26.5393 34.9968 24.5317 32.5202 24.5317ZM34.7623 29.4643H32.9687V31.2579H32.0718V29.4643H30.2782V28.5674H32.0718V26.7738H32.9687V28.5674H34.7623V29.4643Z" fill="#C425FE"/>
</svg>
