<svg width="115" height="115" viewBox="0 0 115 115" fill="none" xmlns="http://www.w3.org/2000/svg">
<path fill-rule="evenodd" clip-rule="evenodd" d="M12.7783 54.3061C12.7783 52.6116 13.4514 50.9866 14.6496 49.7884C15.8478 48.5902 17.4728 47.9171 19.1673 47.9171H25.5562C27.2507 47.9171 28.8757 48.5902 30.0739 49.7884C31.2721 50.9866 31.9452 52.6116 31.9452 54.3061V60.695C31.9452 62.3895 31.2721 64.0145 30.0739 65.2127C28.8757 66.4109 27.2507 67.084 25.5562 67.084H19.1673C17.4728 67.084 15.8478 66.4109 14.6496 65.2127C13.4514 64.0145 12.7783 62.3895 12.7783 60.695V54.3061ZM25.5562 54.3061V60.695H19.1673V54.3061H25.5562ZM44.7231 47.9171C43.0287 47.9171 41.4036 48.5902 40.2054 49.7884C39.0073 50.9866 38.3342 52.6116 38.3342 54.3061V60.695C38.3342 62.3895 39.0073 64.0145 40.2054 65.2127C41.4036 66.4109 43.0287 67.084 44.7231 67.084H51.1121C52.8065 67.084 54.4316 66.4109 55.6297 65.2127C56.8279 64.0145 57.501 62.3895 57.501 60.695V54.3061C57.501 52.6116 56.8279 50.9866 55.6297 49.7884C54.4316 48.5902 52.8065 47.9171 51.1121 47.9171H44.7231ZM51.1121 54.3061H44.7231V60.695H51.1121V54.3061ZM63.89 54.3061C63.89 52.6116 64.5631 50.9866 65.7613 49.7884C66.9594 48.5902 68.5845 47.9171 70.2789 47.9171H76.6679C78.3624 47.9171 79.9874 48.5902 81.1856 49.7884C82.3837 50.9866 83.0569 52.6116 83.0569 54.3061V60.695C83.0569 62.3895 82.3837 64.0145 81.1856 65.2127C79.9874 66.4109 78.3624 67.084 76.6679 67.084H70.2789C68.5845 67.084 66.9594 66.4109 65.7613 65.2127C64.5631 64.0145 63.89 62.3895 63.89 60.695V54.3061ZM70.2789 54.3061H76.6679V60.695H70.2789V54.3061ZM19.1673 73.4729C17.4728 73.4729 15.8478 74.1461 14.6496 75.3442C13.4514 76.5424 12.7783 78.1674 12.7783 79.8619V86.2509C12.7783 87.9453 13.4514 89.5704 14.6496 90.7685C15.8478 91.9667 17.4728 92.6398 19.1673 92.6398H25.5562C27.2507 92.6398 28.8757 91.9667 30.0739 90.7685C31.2721 89.5704 31.9452 87.9453 31.9452 86.2509V79.8619C31.9452 78.1674 31.2721 76.5424 30.0739 75.3442C28.8757 74.1461 27.2507 73.4729 25.5562 73.4729H19.1673ZM19.1673 79.8619V86.2509H25.5562V79.8619H19.1673ZM38.3342 79.8619C38.3342 78.1674 39.0073 76.5424 40.2054 75.3442C41.4036 74.1461 43.0287 73.4729 44.7231 73.4729H51.1121C52.8065 73.4729 54.4316 74.1461 55.6297 75.3442C56.8279 76.5424 57.501 78.1674 57.501 79.8619V86.2509C57.501 87.9453 56.8279 89.5704 55.6297 90.7685C54.4316 91.9667 52.8065 92.6398 51.1121 92.6398H44.7231C43.0287 92.6398 41.4036 91.9667 40.2054 90.7685C39.0073 89.5704 38.3342 87.9453 38.3342 86.2509V79.8619ZM44.7231 79.8619H51.1121V86.2509H44.7231V79.8619Z" fill="white"/>
<path d="M92.6398 81.4592C93.487 81.4592 94.2996 81.7958 94.8986 82.3949C95.4977 82.9939 95.8343 83.8065 95.8343 84.6537V91.3174L98.0928 93.5759C98.6747 94.1784 98.9967 94.9853 98.9894 95.8229C98.9821 96.6605 98.6461 97.4617 98.0539 98.054C97.4616 98.6463 96.6604 98.9822 95.8228 98.9895C94.9852 98.9968 94.1783 98.6748 93.5758 98.0929L89.4453 93.9624V84.6537C89.4453 83.8065 89.7819 82.9939 90.381 82.3949C90.98 81.7958 91.7926 81.4592 92.6398 81.4592Z" fill="white"/>
<path fill-rule="evenodd" clip-rule="evenodd" d="M19.1669 3.19448C19.1669 2.34725 19.5034 1.53472 20.1025 0.935642C20.7016 0.336561 21.5141 0 22.3614 0C23.2086 0 24.0211 0.336561 24.6202 0.935642C25.2193 1.53472 25.5558 2.34725 25.5558 3.19448V19.1669C25.5558 20.0141 25.2193 20.8266 24.6202 21.4257C24.0211 22.0248 23.2086 22.3614 22.3614 22.3614C21.5141 22.3614 20.7016 22.0248 20.1025 21.4257C19.5034 20.8266 19.1669 20.0141 19.1669 19.1669V15.9724H9.58344C8.73621 15.9724 7.92368 16.309 7.3246 16.908C6.72552 17.5071 6.38896 18.3196 6.38896 19.1669V31.9448H89.4454V19.1669C89.4454 18.3196 89.1089 17.5071 88.5098 16.908C87.9107 16.309 87.0982 15.9724 86.2509 15.9724H76.6675V9.58344H86.2509C88.7926 9.58344 91.2302 10.5931 93.0275 12.3904C94.8247 14.1876 95.8344 16.6252 95.8344 19.1669V70.5022C101.43 71.3109 106.511 74.2086 110.056 78.6124C113.601 83.0162 115.347 88.5992 114.942 94.2381C114.538 99.877 112.012 105.153 107.874 109.006C103.737 112.858 98.2933 115 92.6399 115.001C89.0344 115.004 85.4819 114.134 82.2859 112.465C79.09 110.796 76.3457 108.378 74.2876 105.418H9.58344C7.04175 105.418 4.60417 104.408 2.80692 102.611C1.00968 100.814 0 98.3761 0 95.8344V19.1669C0 16.6252 1.00968 14.1876 2.80692 12.3904C4.60417 10.5931 7.04175 9.58344 9.58344 9.58344H19.1669V3.19448ZM70.2785 92.6399C70.2772 87.2618 72.2141 82.0633 75.7344 77.9974C79.2547 73.9315 84.1225 71.2705 89.4454 70.5022V38.3338H6.38896V95.8344C6.38896 96.6816 6.72552 97.4941 7.3246 98.0932C7.92368 98.6923 8.73621 99.0289 9.58344 99.0289H71.2049C70.5887 96.9552 70.2767 94.8031 70.2785 92.6399ZM92.6399 108.612C96.876 108.612 100.939 106.929 103.934 103.934C106.929 100.939 108.612 96.876 108.612 92.6399C108.612 88.4038 106.929 84.3411 103.934 81.3457C100.939 78.3503 96.876 76.6675 92.6399 76.6675C88.4038 76.6675 84.3411 78.3503 81.3457 81.3457C78.3503 84.3411 76.6675 88.4038 76.6675 92.6399C76.6675 96.876 78.3503 100.939 81.3457 103.934C84.3411 106.929 88.4038 108.612 92.6399 108.612Z" fill="white"/>
<path d="M67.0836 22.3614C66.2364 22.3614 65.4238 22.0248 64.8248 21.4257C64.2257 20.8266 63.8891 20.0141 63.8891 19.1669V15.9724H31.9443V9.58344H63.8891V3.19448C63.8891 2.34725 64.2257 1.53472 64.8248 0.935642C65.4238 0.336561 66.2364 0 67.0836 0C67.9308 0 68.7434 0.336561 69.3424 0.935642C69.9415 1.53472 70.2781 2.34725 70.2781 3.19448V19.1669C70.2781 20.0141 69.9415 20.8266 69.3424 21.4257C68.7434 22.0248 67.9308 22.3614 67.0836 22.3614Z" fill="white"/>
</svg>
