<svg width="463" height="310" viewBox="0 0 463 310" fill="none" xmlns="http://www.w3.org/2000/svg">
<ellipse cx="20.5015" cy="23.8234" rx="20.5015" ry="23.8234" transform="matrix(0.99999 -0.00437229 0.00313948 0.999995 0 33.0703)" fill="#000E8A"/>
<ellipse cx="20.5015" cy="23.8234" rx="20.5015" ry="23.8234" transform="matrix(0.99999 -0.00437229 0.00313948 0.999995 0 106.07)" fill="#000E8A"/>
<path d="M16.624 60.808C16.9867 60.52 17.152 60.3867 17.12 60.408C18.1653 59.544 18.9867 58.8347 19.584 58.28C20.192 57.7253 20.704 57.144 21.12 56.536C21.536 55.928 21.744 55.336 21.744 54.76C21.744 54.3227 21.6427 53.9813 21.44 53.736C21.2373 53.4907 20.9333 53.368 20.528 53.368C20.1227 53.368 19.8027 53.5227 19.568 53.832C19.344 54.1307 19.232 54.5573 19.232 55.112H16.592C16.6133 54.2053 16.8053 53.448 17.168 52.84C17.5413 52.232 18.0267 51.784 18.624 51.496C19.232 51.208 19.904 51.064 20.64 51.064C21.9093 51.064 22.864 51.3893 23.504 52.04C24.1547 52.6907 24.48 53.5387 24.48 54.584C24.48 55.7253 24.0907 56.7867 23.312 57.768C22.5333 58.7387 21.5413 59.688 20.336 60.616H24.656V62.84H16.624V60.808Z" fill="white"/>
<path d="M16.624 132.808C16.9867 132.52 17.152 132.387 17.12 132.408C18.1653 131.544 18.9867 130.835 19.584 130.28C20.192 129.725 20.704 129.144 21.12 128.536C21.536 127.928 21.744 127.336 21.744 126.76C21.744 126.323 21.6427 125.981 21.44 125.736C21.2373 125.491 20.9333 125.368 20.528 125.368C20.1227 125.368 19.8027 125.523 19.568 125.832C19.344 126.131 19.232 126.557 19.232 127.112H16.592C16.6133 126.205 16.8053 125.448 17.168 124.84C17.5413 124.232 18.0267 123.784 18.624 123.496C19.232 123.208 19.904 123.064 20.64 123.064C21.9093 123.064 22.864 123.389 23.504 124.04C24.1547 124.691 24.48 125.539 24.48 126.584C24.48 127.725 24.0907 128.787 23.312 129.768C22.5333 130.739 21.5413 131.688 20.336 132.616H24.656V134.84H16.624V132.808Z" fill="white"/>
<ellipse cx="20.5015" cy="23.8234" rx="20.5015" ry="23.8234" transform="matrix(0.99999 -0.00437229 0.00313948 0.999995 0 183.07)" fill="#000E8A"/>
<path d="M16.624 209.808C16.9867 209.52 17.152 209.387 17.12 209.408C18.1653 208.544 18.9867 207.835 19.584 207.28C20.192 206.725 20.704 206.144 21.12 205.536C21.536 204.928 21.744 204.336 21.744 203.76C21.744 203.323 21.6427 202.981 21.44 202.736C21.2373 202.491 20.9333 202.368 20.528 202.368C20.1227 202.368 19.8027 202.523 19.568 202.832C19.344 203.131 19.232 203.557 19.232 204.112H16.592C16.6133 203.205 16.8053 202.448 17.168 201.84C17.5413 201.232 18.0267 200.784 18.624 200.496C19.232 200.208 19.904 200.064 20.64 200.064C21.9093 200.064 22.864 200.389 23.504 201.04C24.1547 201.691 24.48 202.539 24.48 203.584C24.48 204.725 24.0907 205.787 23.312 206.768C22.5333 207.739 21.5413 208.688 20.336 209.616H24.656V211.84H16.624V209.808Z" fill="white"/>
<ellipse cx="20.5015" cy="23.8234" rx="20.5015" ry="23.8234" transform="matrix(0.99999 -0.00437229 0.00313948 0.999995 0 262.07)" fill="#000E8A"/>
<path d="M16.624 288.808C16.9867 288.52 17.152 288.387 17.12 288.408C18.1653 287.544 18.9867 286.835 19.584 286.28C20.192 285.725 20.704 285.144 21.12 284.536C21.536 283.928 21.744 283.336 21.744 282.76C21.744 282.323 21.6427 281.981 21.44 281.736C21.2373 281.491 20.9333 281.368 20.528 281.368C20.1227 281.368 19.8027 281.523 19.568 281.832C19.344 282.131 19.232 282.557 19.232 283.112H16.592C16.6133 282.205 16.8053 281.448 17.168 280.84C17.5413 280.232 18.0267 279.784 18.624 279.496C19.232 279.208 19.904 279.064 20.64 279.064C21.9093 279.064 22.864 279.389 23.504 280.04C24.1547 280.691 24.48 281.539 24.48 282.584C24.48 283.725 24.0907 284.787 23.312 285.768C22.5333 286.739 21.5413 287.688 20.336 288.616H24.656V290.84H16.624V288.808Z" fill="white"/>
<ellipse cx="20.5015" cy="21.0138" rx="20.5015" ry="21.0138" transform="matrix(0.99999 -0.00437229 0.00313948 0.999995 0 33.0703)" fill="#000E8A"/>
<ellipse cx="20.5015" cy="23.8234" rx="20.5015" ry="23.8234" transform="matrix(0.99999 -0.00437229 0.00313948 0.999995 0 106.07)" fill="#000E8A"/>
<path d="M18.432 52.864V50.32H22.864V62H20.016V52.864H18.432Z" fill="white"/>
<path d="M18.64 128.728C17.6373 128.195 17.136 127.357 17.136 126.216C17.136 125.64 17.2853 125.117 17.584 124.648C17.8827 124.168 18.336 123.789 18.944 123.512C19.552 123.224 20.2987 123.08 21.184 123.08C22.0693 123.08 22.8107 123.224 23.408 123.512C24.016 123.789 24.4693 124.168 24.768 124.648C25.0667 125.117 25.216 125.64 25.216 126.216C25.216 126.792 25.0773 127.293 24.8 127.72C24.5333 128.147 24.1707 128.483 23.712 128.728C24.288 129.005 24.7307 129.389 25.04 129.88C25.3493 130.36 25.504 130.925 25.504 131.576C25.504 132.333 25.312 132.989 24.928 133.544C24.544 134.088 24.0213 134.504 23.36 134.792C22.7093 135.08 21.984 135.224 21.184 135.224C20.384 135.224 19.6533 135.08 18.992 134.792C18.3413 134.504 17.824 134.088 17.44 133.544C17.056 132.989 16.864 132.333 16.864 131.576C16.864 130.915 17.0187 130.344 17.328 129.864C17.6373 129.373 18.0747 128.995 18.64 128.728ZM22.56 126.632C22.56 126.195 22.432 125.859 22.176 125.624C21.9307 125.379 21.6 125.256 21.184 125.256C20.768 125.256 20.432 125.379 20.176 125.624C19.9307 125.869 19.808 126.211 19.808 126.648C19.808 127.064 19.936 127.395 20.192 127.64C20.448 127.875 20.7787 127.992 21.184 127.992C21.5893 127.992 21.92 127.869 22.176 127.624C22.432 127.379 22.56 127.048 22.56 126.632ZM21.184 129.912C20.6827 129.912 20.2773 130.051 19.968 130.328C19.6587 130.595 19.504 130.968 19.504 131.448C19.504 131.896 19.6533 132.264 19.952 132.552C20.2613 132.84 20.672 132.984 21.184 132.984C21.696 132.984 22.096 132.84 22.384 132.552C22.6827 132.264 22.832 131.896 22.832 131.448C22.832 130.979 22.6773 130.605 22.368 130.328C22.0693 130.051 21.6747 129.912 21.184 129.912Z" fill="white"/>
<ellipse cx="20.5015" cy="23.8234" rx="20.5015" ry="23.8234" transform="matrix(0.99999 -0.00437229 0.00313948 0.999995 0 183.07)" fill="#000E8A"/>
<path d="M13.432 204.864V202.32H17.864V214H15.016V204.864H13.432ZM27.9596 204.704H22.9676V206.912C23.181 206.677 23.4796 206.485 23.8636 206.336C24.2476 206.187 24.6636 206.112 25.1116 206.112C25.9116 206.112 26.573 206.293 27.0956 206.656C27.629 207.019 28.0183 207.488 28.2636 208.064C28.509 208.64 28.6316 209.264 28.6316 209.936C28.6316 211.184 28.2796 212.176 27.5756 212.912C26.8716 213.637 25.8796 214 24.5996 214C23.7463 214 23.005 213.856 22.3756 213.568C21.7463 213.269 21.261 212.859 20.9196 212.336C20.5783 211.813 20.3916 211.211 20.3596 210.528H23.0316C23.0956 210.859 23.2503 211.136 23.4956 211.36C23.741 211.573 24.077 211.68 24.5036 211.68C25.005 211.68 25.3783 211.52 25.6236 211.2C25.869 210.88 25.9916 210.453 25.9916 209.92C25.9916 209.397 25.8636 208.997 25.6076 208.72C25.3516 208.443 24.9783 208.304 24.4876 208.304C24.125 208.304 23.8263 208.395 23.5916 208.576C23.357 208.747 23.2023 208.976 23.1276 209.264H20.4876V202.304H27.9596V204.704Z" fill="white"/>
<ellipse cx="20.5015" cy="23.8234" rx="20.5015" ry="23.8234" transform="matrix(0.99999 -0.00437229 0.00313948 0.999995 0 262.07)" fill="#000E8A"/>
<path d="M12.624 288.808C12.9867 288.52 13.152 288.387 13.12 288.408C14.1653 287.544 14.9867 286.835 15.584 286.28C16.192 285.725 16.704 285.144 17.12 284.536C17.536 283.928 17.744 283.336 17.744 282.76C17.744 282.323 17.6427 281.981 17.44 281.736C17.2373 281.491 16.9333 281.368 16.528 281.368C16.1227 281.368 15.8027 281.523 15.568 281.832C15.344 282.131 15.232 282.557 15.232 283.112H12.592C12.6133 282.205 12.8053 281.448 13.168 280.84C13.5413 280.232 14.0267 279.784 14.624 279.496C15.232 279.208 15.904 279.064 16.64 279.064C17.9093 279.064 18.864 279.389 19.504 280.04C20.1547 280.691 20.48 281.539 20.48 282.584C20.48 283.725 20.0907 284.787 19.312 285.768C18.5333 286.739 17.5413 287.688 16.336 288.616H20.656V290.84H12.624V288.808ZM21.7646 288.808C22.1273 288.52 22.2926 288.387 22.2606 288.408C23.306 287.544 24.1273 286.835 24.7246 286.28C25.3326 285.725 25.8446 285.144 26.2606 284.536C26.6766 283.928 26.8846 283.336 26.8846 282.76C26.8846 282.323 26.7833 281.981 26.5806 281.736C26.378 281.491 26.074 281.368 25.6686 281.368C25.2633 281.368 24.9433 281.523 24.7086 281.832C24.4846 282.131 24.3726 282.557 24.3726 283.112H21.7326C21.754 282.205 21.946 281.448 22.3086 280.84C22.682 280.232 23.1673 279.784 23.7646 279.496C24.3726 279.208 25.0446 279.064 25.7806 279.064C27.05 279.064 28.0046 279.389 28.6446 280.04C29.2953 280.691 29.6206 281.539 29.6206 282.584C29.6206 283.725 29.2313 284.787 28.4526 285.768C27.674 286.739 26.682 287.688 25.4766 288.616H29.7966V290.84H21.7646V288.808Z" fill="white"/>
<ellipse cx="20.5015" cy="23.8234" rx="20.5015" ry="23.8234" transform="matrix(0.99999 -0.00437229 0.00313948 0.999995 70 33.1792)" fill="#000E8A"/>
<ellipse cx="20.5015" cy="23.8234" rx="20.5015" ry="23.8234" transform="matrix(0.99999 -0.00437229 0.00313948 0.999995 70 106.179)" fill="#94C11F"/>
<path d="M86.624 60.9169C86.9867 60.6289 87.152 60.4956 87.12 60.5169C88.1653 59.6529 88.9867 58.9436 89.584 58.3889C90.192 57.8342 90.704 57.2529 91.12 56.6449C91.536 56.0369 91.744 55.4449 91.744 54.8689C91.744 54.4316 91.6427 54.0902 91.44 53.8449C91.2373 53.5996 90.9333 53.4769 90.528 53.4769C90.1227 53.4769 89.8027 53.6316 89.568 53.9409C89.344 54.2396 89.232 54.6662 89.232 55.2209H86.592C86.6133 54.3142 86.8053 53.5569 87.168 52.9489C87.5413 52.3409 88.0267 51.8929 88.624 51.6049C89.232 51.3169 89.904 51.1729 90.64 51.1729C91.9093 51.1729 92.864 51.4982 93.504 52.1489C94.1547 52.7996 94.48 53.6476 94.48 54.6929C94.48 55.8342 94.0907 56.8956 93.312 57.8769C92.5333 58.8476 91.5413 59.7969 90.336 60.7249H94.656V62.9489H86.624V60.9169Z" fill="white"/>
<path d="M89.664 131.685C89.824 132.528 90.3147 132.949 91.136 132.949C91.7013 132.949 92.1013 132.698 92.336 132.197C92.5707 131.696 92.688 130.88 92.688 129.749C92.4533 130.08 92.1333 130.336 91.728 130.517C91.3227 130.698 90.8693 130.789 90.368 130.789C89.6853 130.789 89.0773 130.65 88.544 130.373C88.0107 130.085 87.5893 129.664 87.28 129.109C86.9813 128.544 86.832 127.861 86.832 127.061C86.832 126.272 86.992 125.584 87.312 124.997C87.6427 124.41 88.1067 123.957 88.704 123.637C89.312 123.317 90.0267 123.157 90.848 123.157C92.4267 123.157 93.5307 123.648 94.16 124.629C94.7893 125.61 95.104 127.056 95.104 128.965C95.104 130.352 94.976 131.498 94.72 132.405C94.4747 133.301 94.0533 133.984 93.456 134.453C92.8693 134.922 92.064 135.157 91.04 135.157C90.2293 135.157 89.536 134.997 88.96 134.677C88.3947 134.357 87.9573 133.936 87.648 133.413C87.3493 132.89 87.1787 132.314 87.136 131.685H89.664ZM90.992 128.629C91.44 128.629 91.7973 128.496 92.064 128.229C92.3307 127.952 92.464 127.578 92.464 127.109C92.464 126.597 92.3253 126.202 92.048 125.925C91.7707 125.648 91.3973 125.509 90.928 125.509C90.4587 125.509 90.0853 125.653 89.808 125.941C89.5413 126.218 89.408 126.602 89.408 127.093C89.408 127.552 89.5413 127.925 89.808 128.213C90.0853 128.49 90.48 128.629 90.992 128.629Z" fill="white"/>
<ellipse cx="20.5015" cy="23.8234" rx="20.5015" ry="23.8234" transform="matrix(0.99999 -0.00437229 0.00313948 0.999995 70 183.179)" fill="#000E8A"/>
<path d="M83.432 203.864V201.32H87.864V213H85.016V203.864H83.432ZM95.5116 204.472C95.4263 204.077 95.277 203.784 95.0636 203.592C94.8503 203.389 94.5463 203.288 94.1516 203.288C93.5436 203.288 93.1063 203.555 92.8396 204.088C92.573 204.611 92.4343 205.443 92.4236 206.584C92.6583 206.211 92.9943 205.917 93.4316 205.704C93.8796 205.491 94.3703 205.384 94.9036 205.384C95.949 205.384 96.7863 205.715 97.4156 206.376C98.0556 207.037 98.3756 207.96 98.3756 209.144C98.3756 209.923 98.2156 210.605 97.8956 211.192C97.5863 211.779 97.1276 212.237 96.5196 212.568C95.9223 212.899 95.213 213.064 94.3916 213.064C92.749 213.064 91.6076 212.552 90.9676 211.528C90.3276 210.493 90.0076 209.011 90.0076 207.08C90.0076 205.053 90.3436 203.549 91.0156 202.568C91.6983 201.576 92.7863 201.08 94.2796 201.08C95.0796 201.08 95.7516 201.24 96.2956 201.56C96.8503 201.869 97.2663 202.28 97.5436 202.792C97.8316 203.304 98.0023 203.864 98.0556 204.472H95.5116ZM94.2476 207.544C93.789 207.544 93.405 207.683 93.0956 207.96C92.797 208.227 92.6476 208.611 92.6476 209.112C92.6476 209.624 92.7863 210.024 93.0636 210.312C93.3516 210.6 93.757 210.744 94.2796 210.744C94.749 210.744 95.117 210.605 95.3836 210.328C95.661 210.04 95.7996 209.651 95.7996 209.16C95.7996 208.659 95.6663 208.264 95.3996 207.976C95.133 207.688 94.749 207.544 94.2476 207.544Z" fill="white"/>
<ellipse cx="20.5015" cy="23.8234" rx="20.5015" ry="23.8234" transform="matrix(0.99999 -0.00437229 0.00313948 0.999995 70 262.179)" fill="#000E8A"/>
<path d="M81.624 289.808C81.9867 289.52 82.152 289.387 82.12 289.408C83.1653 288.544 83.9867 287.835 84.584 287.28C85.192 286.725 85.704 286.144 86.12 285.536C86.536 284.928 86.744 284.336 86.744 283.76C86.744 283.323 86.6427 282.981 86.44 282.736C86.2373 282.491 85.9333 282.368 85.528 282.368C85.1227 282.368 84.8027 282.523 84.568 282.832C84.344 283.131 84.232 283.557 84.232 284.112H81.592C81.6133 283.205 81.8053 282.448 82.168 281.84C82.5413 281.232 83.0267 280.784 83.624 280.496C84.232 280.208 84.904 280.064 85.64 280.064C86.9093 280.064 87.864 280.389 88.504 281.04C89.1547 281.691 89.48 282.539 89.48 283.584C89.48 284.725 89.0907 285.787 88.312 286.768C87.5333 287.739 86.5413 288.688 85.336 289.616H89.656V291.84H81.624V289.808ZM90.9566 283.616C90.9993 282.475 91.3726 281.595 92.0766 280.976C92.7806 280.357 93.7353 280.048 94.9406 280.048C95.7406 280.048 96.4233 280.187 96.9886 280.464C97.5646 280.741 97.9966 281.12 98.2846 281.6C98.5833 282.08 98.7326 282.619 98.7326 283.216C98.7326 283.92 98.5566 284.496 98.2046 284.944C97.8526 285.381 97.442 285.68 96.9726 285.84V285.904C97.5806 286.107 98.0606 286.443 98.4126 286.912C98.7646 287.381 98.9406 287.984 98.9406 288.72C98.9406 289.381 98.786 289.968 98.4766 290.48C98.178 290.981 97.7353 291.376 97.1486 291.664C96.5726 291.952 95.8846 292.096 95.0846 292.096C93.8046 292.096 92.7806 291.781 92.0126 291.152C91.2553 290.523 90.8553 289.573 90.8126 288.304H93.4686C93.4793 288.773 93.6126 289.147 93.8686 289.424C94.1246 289.691 94.498 289.824 94.9886 289.824C95.4046 289.824 95.7246 289.707 95.9486 289.472C96.1833 289.227 96.3006 288.907 96.3006 288.512C96.3006 288 96.1353 287.632 95.8046 287.408C95.4846 287.173 94.9673 287.056 94.2526 287.056H93.7406V284.832H94.2526C94.7966 284.832 95.234 284.741 95.5646 284.56C95.906 284.368 96.0766 284.032 96.0766 283.552C96.0766 283.168 95.97 282.869 95.7566 282.656C95.5433 282.443 95.25 282.336 94.8766 282.336C94.4713 282.336 94.1673 282.459 93.9646 282.704C93.7726 282.949 93.6606 283.253 93.6286 283.616H90.9566Z" fill="white"/>
<ellipse cx="20.5015" cy="23.8234" rx="20.5015" ry="23.8234" transform="matrix(0.99999 -0.00437229 0.00313948 0.999995 140 33.1792)" fill="#000E8A"/>
<ellipse cx="20.5015" cy="23.8234" rx="20.5015" ry="23.8234" transform="matrix(0.99999 -0.00437229 0.00313948 0.999995 140 106.179)" fill="#94C11F"/>
<path d="M156.816 54.7249C156.859 53.5836 157.232 52.7036 157.936 52.0849C158.64 51.4662 159.595 51.1569 160.8 51.1569C161.6 51.1569 162.283 51.2956 162.848 51.5729C163.424 51.8502 163.856 52.2289 164.144 52.7089C164.443 53.1889 164.592 53.7276 164.592 54.3249C164.592 55.0289 164.416 55.6049 164.064 56.0529C163.712 56.4902 163.301 56.7889 162.832 56.9489V57.0129C163.44 57.2156 163.92 57.5516 164.272 58.0209C164.624 58.4902 164.8 59.0929 164.8 59.8289C164.8 60.4902 164.645 61.0769 164.336 61.5889C164.037 62.0902 163.595 62.4849 163.008 62.7729C162.432 63.0609 161.744 63.2049 160.944 63.2049C159.664 63.2049 158.64 62.8902 157.872 62.2609C157.115 61.6316 156.715 60.6822 156.672 59.4129H159.328C159.339 59.8822 159.472 60.2556 159.728 60.5329C159.984 60.7996 160.357 60.9329 160.848 60.9329C161.264 60.9329 161.584 60.8156 161.808 60.5809C162.043 60.3356 162.16 60.0156 162.16 59.6209C162.16 59.1089 161.995 58.7409 161.664 58.5169C161.344 58.2822 160.827 58.1649 160.112 58.1649H159.6V55.9409H160.112C160.656 55.9409 161.093 55.8502 161.424 55.6689C161.765 55.4769 161.936 55.1409 161.936 54.6609C161.936 54.2769 161.829 53.9782 161.616 53.7649C161.403 53.5516 161.109 53.4449 160.736 53.4449C160.331 53.4449 160.027 53.5676 159.824 53.8129C159.632 54.0582 159.52 54.3622 159.488 54.7249H156.816Z" fill="white"/>
<path d="M153.432 126.864V124.32H157.864V136H155.016V126.864H153.432ZM159.736 130C159.736 128.165 160.088 126.72 160.792 125.664C161.506 124.608 162.653 124.08 164.232 124.08C165.81 124.08 166.952 124.608 167.656 125.664C168.37 126.72 168.728 128.165 168.728 130C168.728 131.856 168.37 133.312 167.656 134.368C166.952 135.424 165.81 135.952 164.232 135.952C162.653 135.952 161.506 135.424 160.792 134.368C160.088 133.312 159.736 131.856 159.736 130ZM166.04 130C166.04 128.923 165.922 128.096 165.688 127.52C165.453 126.933 164.968 126.64 164.232 126.64C163.496 126.64 163.01 126.933 162.776 127.52C162.541 128.096 162.424 128.923 162.424 130C162.424 130.725 162.466 131.328 162.552 131.808C162.637 132.277 162.808 132.661 163.064 132.96C163.33 133.248 163.72 133.392 164.232 133.392C164.744 133.392 165.128 133.248 165.384 132.96C165.65 132.661 165.826 132.277 165.912 131.808C165.997 131.328 166.04 130.725 166.04 130Z" fill="white"/>
<ellipse cx="20.5015" cy="23.8234" rx="20.5015" ry="23.8234" transform="matrix(0.99999 -0.00437229 0.00313948 0.999995 140 183.179)" fill="#000E8A"/>
<path d="M155.432 203.864V201.32H159.864V213H157.016V203.864H155.432ZM169.192 203.368L165.176 213H162.376L166.44 203.672H161.464V201.336H169.192V203.368Z" fill="white"/>
<ellipse cx="20.5015" cy="23.8234" rx="20.5015" ry="23.8234" transform="matrix(0.99999 -0.00437229 0.00313948 0.999995 140 262.179)" fill="#000E8A"/>
<path d="M152.624 288.808C152.987 288.52 153.152 288.387 153.12 288.408C154.165 287.544 154.987 286.835 155.584 286.28C156.192 285.725 156.704 285.144 157.12 284.536C157.536 283.928 157.744 283.336 157.744 282.76C157.744 282.323 157.643 281.981 157.44 281.736C157.237 281.491 156.933 281.368 156.528 281.368C156.123 281.368 155.803 281.523 155.568 281.832C155.344 282.131 155.232 282.557 155.232 283.112H152.592C152.613 282.205 152.805 281.448 153.168 280.84C153.541 280.232 154.027 279.784 154.624 279.496C155.232 279.208 155.904 279.064 156.64 279.064C157.909 279.064 158.864 279.389 159.504 280.04C160.155 280.691 160.48 281.539 160.48 282.584C160.48 283.725 160.091 284.787 159.312 285.768C158.533 286.739 157.541 287.688 156.336 288.616H160.656V290.84H152.624V288.808ZM161.925 288.92V286.712L166.981 279.48H170.037V286.552H171.349V288.92H170.037V291H167.301V288.92H161.925ZM167.493 282.488L164.805 286.552H167.493V282.488Z" fill="white"/>
<ellipse cx="20.5015" cy="23.8234" rx="20.5015" ry="23.8234" transform="matrix(0.99999 -0.00437229 0.00313948 0.999995 210 33.1792)" fill="#000E8A"/>
<ellipse cx="20.5015" cy="23.8234" rx="20.5015" ry="23.8234" transform="matrix(0.99999 -0.00437229 0.00313948 0.999995 210 104.179)" fill="#94C11F"/>
<path d="M225.784 60.92V58.712L230.84 51.48H233.896V58.552H235.208V60.92H233.896V63H231.16V60.92H225.784ZM231.352 54.488L228.664 58.552H231.352V54.488Z" fill="white"/>
<path d="M225.432 124.864V122.32H229.864V134H227.016V124.864H225.432ZM231.448 124.864V122.32H235.88V134H233.032V124.864H231.448Z" fill="white"/>
<ellipse cx="20.5015" cy="23.8234" rx="20.5015" ry="23.8234" transform="matrix(0.99999 -0.00437229 0.00313948 0.999995 210 181.179)" fill="#000E8A"/>
<path d="M223.432 201.864V199.32H227.864V211H225.016V201.864H223.432ZM231.656 204.728C230.653 204.195 230.152 203.357 230.152 202.216C230.152 201.64 230.301 201.117 230.6 200.648C230.898 200.168 231.352 199.789 231.96 199.512C232.568 199.224 233.314 199.08 234.2 199.08C235.085 199.08 235.826 199.224 236.424 199.512C237.032 199.789 237.485 200.168 237.784 200.648C238.082 201.117 238.232 201.64 238.232 202.216C238.232 202.792 238.093 203.293 237.816 203.72C237.549 204.147 237.186 204.483 236.728 204.728C237.304 205.005 237.746 205.389 238.056 205.88C238.365 206.36 238.52 206.925 238.52 207.576C238.52 208.333 238.328 208.989 237.944 209.544C237.56 210.088 237.037 210.504 236.376 210.792C235.725 211.08 235 211.224 234.2 211.224C233.4 211.224 232.669 211.08 232.008 210.792C231.357 210.504 230.84 210.088 230.456 209.544C230.072 208.989 229.88 208.333 229.88 207.576C229.88 206.915 230.034 206.344 230.344 205.864C230.653 205.373 231.09 204.995 231.656 204.728ZM235.576 202.632C235.576 202.195 235.448 201.859 235.192 201.624C234.946 201.379 234.616 201.256 234.2 201.256C233.784 201.256 233.448 201.379 233.192 201.624C232.946 201.869 232.824 202.211 232.824 202.648C232.824 203.064 232.952 203.395 233.208 203.64C233.464 203.875 233.794 203.992 234.2 203.992C234.605 203.992 234.936 203.869 235.192 203.624C235.448 203.379 235.576 203.048 235.576 202.632ZM234.2 205.912C233.698 205.912 233.293 206.051 232.984 206.328C232.674 206.595 232.52 206.968 232.52 207.448C232.52 207.896 232.669 208.264 232.968 208.552C233.277 208.84 233.688 208.984 234.2 208.984C234.712 208.984 235.112 208.84 235.4 208.552C235.698 208.264 235.848 207.896 235.848 207.448C235.848 206.979 235.693 206.605 235.384 206.328C235.085 206.051 234.69 205.912 234.2 205.912Z" fill="white"/>
<ellipse cx="20.5015" cy="23.8234" rx="20.5015" ry="23.8234" transform="matrix(0.99999 -0.00437229 0.00313948 0.999995 210 260.179)" fill="#000E8A"/>
<path d="M222.624 288.808C222.987 288.52 223.152 288.387 223.12 288.408C224.165 287.544 224.987 286.835 225.584 286.28C226.192 285.725 226.704 285.144 227.12 284.536C227.536 283.928 227.744 283.336 227.744 282.76C227.744 282.323 227.643 281.981 227.44 281.736C227.237 281.491 226.933 281.368 226.528 281.368C226.123 281.368 225.803 281.523 225.568 281.832C225.344 282.131 225.232 282.557 225.232 283.112H222.592C222.613 282.205 222.805 281.448 223.168 280.84C223.541 280.232 224.027 279.784 224.624 279.496C225.232 279.208 225.904 279.064 226.64 279.064C227.909 279.064 228.864 279.389 229.504 280.04C230.155 280.691 230.48 281.539 230.48 282.584C230.48 283.725 230.091 284.787 229.312 285.768C228.533 286.739 227.541 287.688 226.336 288.616H230.656V290.84H222.624V288.808ZM240.085 281.704H235.093V283.912C235.306 283.677 235.605 283.485 235.989 283.336C236.373 283.187 236.789 283.112 237.237 283.112C238.037 283.112 238.698 283.293 239.221 283.656C239.754 284.019 240.143 284.488 240.389 285.064C240.634 285.64 240.757 286.264 240.757 286.936C240.757 288.184 240.405 289.176 239.701 289.912C238.997 290.637 238.005 291 236.725 291C235.871 291 235.13 290.856 234.501 290.568C233.871 290.269 233.386 289.859 233.045 289.336C232.703 288.813 232.517 288.211 232.485 287.528H235.157C235.221 287.859 235.375 288.136 235.621 288.36C235.866 288.573 236.202 288.68 236.629 288.68C237.13 288.68 237.503 288.52 237.749 288.2C237.994 287.88 238.117 287.453 238.117 286.92C238.117 286.397 237.989 285.997 237.733 285.72C237.477 285.443 237.103 285.304 236.613 285.304C236.25 285.304 235.951 285.395 235.717 285.576C235.482 285.747 235.327 285.976 235.253 286.264H232.613V279.304H240.085V281.704Z" fill="white"/>
<ellipse cx="20.5015" cy="23.8234" rx="20.5015" ry="23.8234" transform="matrix(0.99999 -0.00437229 0.00313948 0.999995 280 33.1792)" fill="#000E8A"/>
<ellipse cx="20.5015" cy="23.8234" rx="20.5015" ry="23.8234" transform="matrix(0.99999 -0.00437229 0.00313948 0.999995 280 106.179)" fill="#000E8A"/>
<path d="M304.944 53.8129H299.952V56.0209C300.165 55.7862 300.464 55.5942 300.848 55.4449C301.232 55.2956 301.648 55.2209 302.096 55.2209C302.896 55.2209 303.557 55.4022 304.08 55.7649C304.613 56.1276 305.003 56.5969 305.248 57.1729C305.493 57.7489 305.616 58.3729 305.616 59.0449C305.616 60.2929 305.264 61.2849 304.56 62.0209C303.856 62.7462 302.864 63.1089 301.584 63.1089C300.731 63.1089 299.989 62.9649 299.36 62.6769C298.731 62.3782 298.245 61.9676 297.904 61.4449C297.563 60.9222 297.376 60.3196 297.344 59.6369H300.016C300.08 59.9676 300.235 60.2449 300.48 60.4689C300.725 60.6822 301.061 60.7889 301.488 60.7889C301.989 60.7889 302.363 60.6289 302.608 60.3089C302.853 59.9889 302.976 59.5622 302.976 59.0289C302.976 58.5062 302.848 58.1062 302.592 57.8289C302.336 57.5516 301.963 57.4129 301.472 57.4129C301.109 57.4129 300.811 57.5036 300.576 57.6849C300.341 57.8556 300.187 58.0849 300.112 58.3729H297.472V51.4129H304.944V53.8129Z" fill="white"/>
<path d="M293.432 126.864V124.32H297.864V136H295.016V126.864H293.432ZM299.64 133.808C300.002 133.52 300.168 133.387 300.136 133.408C301.181 132.544 302.002 131.835 302.6 131.28C303.208 130.725 303.72 130.144 304.136 129.536C304.552 128.928 304.76 128.336 304.76 127.76C304.76 127.323 304.658 126.981 304.456 126.736C304.253 126.491 303.949 126.368 303.544 126.368C303.138 126.368 302.818 126.523 302.584 126.832C302.36 127.131 302.248 127.557 302.248 128.112H299.608C299.629 127.205 299.821 126.448 300.184 125.84C300.557 125.232 301.042 124.784 301.64 124.496C302.248 124.208 302.92 124.064 303.656 124.064C304.925 124.064 305.88 124.389 306.52 125.04C307.17 125.691 307.496 126.539 307.496 127.584C307.496 128.725 307.106 129.787 306.328 130.768C305.549 131.739 304.557 132.688 303.352 133.616H307.672V135.84H299.64V133.808Z" fill="white"/>
<ellipse cx="20.5015" cy="23.8234" rx="20.5015" ry="23.8234" transform="matrix(0.99999 -0.00437229 0.00313948 0.999995 280 183.179)" fill="#000E8A"/>
<path d="M293.432 204.864V202.32H297.864V214H295.016V204.864H293.432ZM302.68 210.576C302.84 211.419 303.33 211.84 304.152 211.84C304.717 211.84 305.117 211.589 305.352 211.088C305.586 210.587 305.704 209.771 305.704 208.64C305.469 208.971 305.149 209.227 304.744 209.408C304.338 209.589 303.885 209.68 303.384 209.68C302.701 209.68 302.093 209.541 301.56 209.264C301.026 208.976 300.605 208.555 300.296 208C299.997 207.435 299.848 206.752 299.848 205.952C299.848 205.163 300.008 204.475 300.328 203.888C300.658 203.301 301.122 202.848 301.72 202.528C302.328 202.208 303.042 202.048 303.864 202.048C305.442 202.048 306.546 202.539 307.176 203.52C307.805 204.501 308.12 205.947 308.12 207.856C308.12 209.243 307.992 210.389 307.736 211.296C307.49 212.192 307.069 212.875 306.472 213.344C305.885 213.813 305.08 214.048 304.056 214.048C303.245 214.048 302.552 213.888 301.976 213.568C301.41 213.248 300.973 212.827 300.664 212.304C300.365 211.781 300.194 211.205 300.152 210.576H302.68ZM304.008 207.52C304.456 207.52 304.813 207.387 305.08 207.12C305.346 206.843 305.48 206.469 305.48 206C305.48 205.488 305.341 205.093 305.064 204.816C304.786 204.539 304.413 204.4 303.944 204.4C303.474 204.4 303.101 204.544 302.824 204.832C302.557 205.109 302.424 205.493 302.424 205.984C302.424 206.443 302.557 206.816 302.824 207.104C303.101 207.381 303.496 207.52 304.008 207.52Z" fill="white"/>
<ellipse cx="20.5015" cy="23.8234" rx="20.5015" ry="23.8234" transform="matrix(0.99999 -0.00437229 0.00313948 0.999995 350 33.1792)" fill="#000E8A"/>
<ellipse cx="20.5015" cy="23.8234" rx="20.5015" ry="23.8234" transform="matrix(0.99999 -0.00437229 0.00313948 0.999995 350 106.179)" fill="#000E8A"/>
<path d="M372.496 54.5809C372.411 54.1862 372.261 53.8929 372.048 53.7009C371.835 53.4982 371.531 53.3969 371.136 53.3969C370.528 53.3969 370.091 53.6636 369.824 54.1969C369.557 54.7196 369.419 55.5516 369.408 56.6929C369.643 56.3196 369.979 56.0262 370.416 55.8129C370.864 55.5996 371.355 55.4929 371.888 55.4929C372.933 55.4929 373.771 55.8236 374.4 56.4849C375.04 57.1462 375.36 58.0689 375.36 59.2529C375.36 60.0316 375.2 60.7142 374.88 61.3009C374.571 61.8876 374.112 62.3462 373.504 62.6769C372.907 63.0076 372.197 63.1729 371.376 63.1729C369.733 63.1729 368.592 62.6609 367.952 61.6369C367.312 60.6022 366.992 59.1196 366.992 57.1889C366.992 55.1622 367.328 53.6582 368 52.6769C368.683 51.6849 369.771 51.1889 371.264 51.1889C372.064 51.1889 372.736 51.3489 373.28 51.6689C373.835 51.9782 374.251 52.3889 374.528 52.9009C374.816 53.4129 374.987 53.9729 375.04 54.5809H372.496ZM371.232 57.6529C370.773 57.6529 370.389 57.7916 370.08 58.0689C369.781 58.3356 369.632 58.7196 369.632 59.2209C369.632 59.7329 369.771 60.1329 370.048 60.4209C370.336 60.7089 370.741 60.8529 371.264 60.8529C371.733 60.8529 372.101 60.7142 372.368 60.4369C372.645 60.1489 372.784 59.7596 372.784 59.2689C372.784 58.7676 372.651 58.3729 372.384 58.0849C372.117 57.7969 371.733 57.6529 371.232 57.6529Z" fill="white"/>
<path d="M363.432 125.864V123.32H367.864V135H365.016V125.864H363.432ZM369.832 126.616C369.874 125.475 370.248 124.595 370.952 123.976C371.656 123.357 372.61 123.048 373.816 123.048C374.616 123.048 375.298 123.187 375.864 123.464C376.44 123.741 376.872 124.12 377.16 124.6C377.458 125.08 377.608 125.619 377.608 126.216C377.608 126.92 377.432 127.496 377.08 127.944C376.728 128.381 376.317 128.68 375.848 128.84V128.904C376.456 129.107 376.936 129.443 377.288 129.912C377.64 130.381 377.816 130.984 377.816 131.72C377.816 132.381 377.661 132.968 377.352 133.48C377.053 133.981 376.61 134.376 376.024 134.664C375.448 134.952 374.76 135.096 373.96 135.096C372.68 135.096 371.656 134.781 370.888 134.152C370.13 133.523 369.73 132.573 369.688 131.304H372.344C372.354 131.773 372.488 132.147 372.744 132.424C373 132.691 373.373 132.824 373.864 132.824C374.28 132.824 374.6 132.707 374.824 132.472C375.058 132.227 375.176 131.907 375.176 131.512C375.176 131 375.01 130.632 374.68 130.408C374.36 130.173 373.842 130.056 373.128 130.056H372.616V127.832H373.128C373.672 127.832 374.109 127.741 374.44 127.56C374.781 127.368 374.952 127.032 374.952 126.552C374.952 126.168 374.845 125.869 374.632 125.656C374.418 125.443 374.125 125.336 373.752 125.336C373.346 125.336 373.042 125.459 372.84 125.704C372.648 125.949 372.536 126.253 372.504 126.616H369.832Z" fill="white"/>
<ellipse cx="20.5015" cy="23.8234" rx="20.5015" ry="23.8234" transform="matrix(0.99999 -0.00437229 0.00313948 0.999995 350 183.179)" fill="#94C11F"/>
<path d="M361.624 211.808C361.987 211.52 362.152 211.387 362.12 211.408C363.165 210.544 363.987 209.835 364.584 209.28C365.192 208.725 365.704 208.144 366.12 207.536C366.536 206.928 366.744 206.336 366.744 205.76C366.744 205.323 366.643 204.981 366.44 204.736C366.237 204.491 365.933 204.368 365.528 204.368C365.123 204.368 364.803 204.523 364.568 204.832C364.344 205.131 364.232 205.557 364.232 206.112H361.592C361.613 205.205 361.805 204.448 362.168 203.84C362.541 203.232 363.027 202.784 363.624 202.496C364.232 202.208 364.904 202.064 365.64 202.064C366.909 202.064 367.864 202.389 368.504 203.04C369.155 203.691 369.48 204.539 369.48 205.584C369.48 206.725 369.091 207.787 368.312 208.768C367.533 209.739 366.541 210.688 365.336 211.616H369.656V213.84H361.624V211.808ZM370.861 208C370.861 206.165 371.213 204.72 371.917 203.664C372.631 202.608 373.778 202.08 375.357 202.08C376.935 202.08 378.077 202.608 378.781 203.664C379.495 204.72 379.853 206.165 379.853 208C379.853 209.856 379.495 211.312 378.781 212.368C378.077 213.424 376.935 213.952 375.357 213.952C373.778 213.952 372.631 213.424 371.917 212.368C371.213 211.312 370.861 209.856 370.861 208ZM377.165 208C377.165 206.923 377.047 206.096 376.813 205.52C376.578 204.933 376.093 204.64 375.357 204.64C374.621 204.64 374.135 204.933 373.901 205.52C373.666 206.096 373.549 206.923 373.549 208C373.549 208.725 373.591 209.328 373.677 209.808C373.762 210.277 373.933 210.661 374.189 210.96C374.455 211.248 374.845 211.392 375.357 211.392C375.869 211.392 376.253 211.248 376.509 210.96C376.775 210.661 376.951 210.277 377.037 209.808C377.122 209.328 377.165 208.725 377.165 208Z" fill="white"/>
<ellipse cx="20.5015" cy="23.8234" rx="20.5015" ry="23.8234" transform="matrix(0.99999 -0.00437229 0.00313948 0.999995 420 33.1792)" fill="#000E8A"/>
<ellipse cx="20.5015" cy="23.8234" rx="20.5015" ry="23.8234" transform="matrix(0.99999 -0.00437229 0.00313948 0.999995 420 106.179)" fill="#000E8A"/>
<path d="M444.176 53.4769L440.16 63.1089H437.36L441.424 53.7809H436.448V51.4449H444.176V53.4769Z" fill="white"/>
<path d="M433.432 126.864V124.32H437.864V136H435.016V126.864H433.432ZM439.8 133.92V131.712L444.856 124.48H447.912V131.552H449.224V133.92H447.912V136H445.176V133.92H439.8ZM445.368 127.488L442.68 131.552H445.368V127.488Z" fill="white"/>
<ellipse cx="20.5015" cy="23.8234" rx="20.5015" ry="23.8234" transform="matrix(0.99999 -0.00437229 0.00313948 0.999995 420 183.179)" fill="#000E8A"/>
<path d="M433.624 209.808C433.987 209.52 434.152 209.387 434.12 209.408C435.165 208.544 435.987 207.835 436.584 207.28C437.192 206.725 437.704 206.144 438.12 205.536C438.536 204.928 438.744 204.336 438.744 203.76C438.744 203.323 438.643 202.981 438.44 202.736C438.237 202.491 437.933 202.368 437.528 202.368C437.123 202.368 436.803 202.523 436.568 202.832C436.344 203.131 436.232 203.557 436.232 204.112H433.592C433.613 203.205 433.805 202.448 434.168 201.84C434.541 201.232 435.027 200.784 435.624 200.496C436.232 200.208 436.904 200.064 437.64 200.064C438.909 200.064 439.864 200.389 440.504 201.04C441.155 201.691 441.48 202.539 441.48 203.584C441.48 204.725 441.091 205.787 440.312 206.768C439.533 207.739 438.541 208.688 437.336 209.616H441.656V211.84H433.624V209.808ZM442.573 202.864V200.32H447.005V212H444.157V202.864H442.573Z" fill="white"/>
<ellipse cx="20.5015" cy="23.8234" rx="20.5015" ry="23.8234" transform="matrix(0.99999 -0.00437229 0.00313948 0.999995 351 260.179)" fill="#000E8A"/>
<path d="M362.624 288.808C362.987 288.52 363.152 288.387 363.12 288.408C364.165 287.544 364.987 286.835 365.584 286.28C366.192 285.725 366.704 285.144 367.12 284.536C367.536 283.928 367.744 283.336 367.744 282.76C367.744 282.323 367.643 281.981 367.44 281.736C367.237 281.491 366.933 281.368 366.528 281.368C366.123 281.368 365.803 281.523 365.568 281.832C365.344 282.131 365.232 282.557 365.232 283.112H362.592C362.613 282.205 362.805 281.448 363.168 280.84C363.541 280.232 364.027 279.784 364.624 279.496C365.232 279.208 365.904 279.064 366.64 279.064C367.909 279.064 368.864 279.389 369.504 280.04C370.155 280.691 370.48 281.539 370.48 282.584C370.48 283.725 370.091 284.787 369.312 285.768C368.533 286.739 367.541 287.688 366.336 288.616H370.656V290.84H362.624V288.808ZM379.317 281.368L375.301 291H372.501L376.565 281.672H371.589V279.336H379.317V281.368Z" fill="white"/>
<ellipse cx="20.5015" cy="23.8234" rx="20.5015" ry="23.8234" transform="matrix(0.99999 -0.00437229 0.00313948 0.999995 421 260.179)" fill="#000E8A"/>
<path d="M432.624 287.808C432.987 287.52 433.152 287.387 433.12 287.408C434.165 286.544 434.987 285.835 435.584 285.28C436.192 284.725 436.704 284.144 437.12 283.536C437.536 282.928 437.744 282.336 437.744 281.76C437.744 281.323 437.643 280.981 437.44 280.736C437.237 280.491 436.933 280.368 436.528 280.368C436.123 280.368 435.803 280.523 435.568 280.832C435.344 281.131 435.232 281.557 435.232 282.112H432.592C432.613 281.205 432.805 280.448 433.168 279.84C433.541 279.232 434.027 278.784 434.624 278.496C435.232 278.208 435.904 278.064 436.64 278.064C437.909 278.064 438.864 278.389 439.504 279.04C440.155 279.691 440.48 280.539 440.48 281.584C440.48 282.725 440.091 283.787 439.312 284.768C438.533 285.739 437.541 286.688 436.336 287.616H440.656V289.84H432.624V287.808ZM443.781 283.728C442.778 283.195 442.277 282.357 442.277 281.216C442.277 280.64 442.426 280.117 442.725 279.648C443.023 279.168 443.477 278.789 444.085 278.512C444.693 278.224 445.439 278.08 446.325 278.08C447.21 278.08 447.951 278.224 448.549 278.512C449.157 278.789 449.61 279.168 449.909 279.648C450.207 280.117 450.357 280.64 450.357 281.216C450.357 281.792 450.218 282.293 449.941 282.72C449.674 283.147 449.311 283.483 448.853 283.728C449.429 284.005 449.871 284.389 450.181 284.88C450.49 285.36 450.645 285.925 450.645 286.576C450.645 287.333 450.453 287.989 450.069 288.544C449.685 289.088 449.162 289.504 448.501 289.792C447.85 290.08 447.125 290.224 446.325 290.224C445.525 290.224 444.794 290.08 444.133 289.792C443.482 289.504 442.965 289.088 442.581 288.544C442.197 287.989 442.005 287.333 442.005 286.576C442.005 285.915 442.159 285.344 442.469 284.864C442.778 284.373 443.215 283.995 443.781 283.728ZM447.701 281.632C447.701 281.195 447.573 280.859 447.317 280.624C447.071 280.379 446.741 280.256 446.325 280.256C445.909 280.256 445.573 280.379 445.317 280.624C445.071 280.869 444.949 281.211 444.949 281.648C444.949 282.064 445.077 282.395 445.333 282.64C445.589 282.875 445.919 282.992 446.325 282.992C446.73 282.992 447.061 282.869 447.317 282.624C447.573 282.379 447.701 282.048 447.701 281.632ZM446.325 284.912C445.823 284.912 445.418 285.051 445.109 285.328C444.799 285.595 444.645 285.968 444.645 286.448C444.645 286.896 444.794 287.264 445.093 287.552C445.402 287.84 445.813 287.984 446.325 287.984C446.837 287.984 447.237 287.84 447.525 287.552C447.823 287.264 447.973 286.896 447.973 286.448C447.973 285.979 447.818 285.605 447.509 285.328C447.21 285.051 446.815 284.912 446.325 284.912Z" fill="white"/>
<ellipse cx="20.5015" cy="23.8234" rx="20.5015" ry="23.8234" transform="matrix(0.99999 -0.00437229 0.00313948 0.999995 280 262.179)" fill="#94C11F"/>
<path d="M291.624 288.808C291.987 288.52 292.152 288.387 292.12 288.408C293.165 287.544 293.987 286.835 294.584 286.28C295.192 285.725 295.704 285.144 296.12 284.536C296.536 283.928 296.744 283.336 296.744 282.76C296.744 282.323 296.643 281.981 296.44 281.736C296.237 281.491 295.933 281.368 295.528 281.368C295.123 281.368 294.803 281.523 294.568 281.832C294.344 282.131 294.232 282.557 294.232 283.112H291.592C291.613 282.205 291.805 281.448 292.168 280.84C292.541 280.232 293.027 279.784 293.624 279.496C294.232 279.208 294.904 279.064 295.64 279.064C296.909 279.064 297.864 279.389 298.504 280.04C299.155 280.691 299.48 281.539 299.48 282.584C299.48 283.725 299.091 284.787 298.312 285.768C297.533 286.739 296.541 287.688 295.336 288.616H299.656V290.84H291.624V288.808ZM306.637 282.472C306.551 282.077 306.402 281.784 306.189 281.592C305.975 281.389 305.671 281.288 305.277 281.288C304.669 281.288 304.231 281.555 303.965 282.088C303.698 282.611 303.559 283.443 303.549 284.584C303.783 284.211 304.119 283.917 304.557 283.704C305.005 283.491 305.495 283.384 306.029 283.384C307.074 283.384 307.911 283.715 308.541 284.376C309.181 285.037 309.501 285.96 309.501 287.144C309.501 287.923 309.341 288.605 309.021 289.192C308.711 289.779 308.253 290.237 307.645 290.568C307.047 290.899 306.338 291.064 305.517 291.064C303.874 291.064 302.733 290.552 302.093 289.528C301.453 288.493 301.133 287.011 301.133 285.08C301.133 283.053 301.469 281.549 302.141 280.568C302.823 279.576 303.911 279.08 305.405 279.08C306.205 279.08 306.877 279.24 307.421 279.56C307.975 279.869 308.391 280.28 308.669 280.792C308.957 281.304 309.127 281.864 309.181 282.472H306.637ZM305.373 285.544C304.914 285.544 304.53 285.683 304.221 285.96C303.922 286.227 303.773 286.611 303.773 287.112C303.773 287.624 303.911 288.024 304.189 288.312C304.477 288.6 304.882 288.744 305.405 288.744C305.874 288.744 306.242 288.605 306.509 288.328C306.786 288.04 306.925 287.651 306.925 287.16C306.925 286.659 306.791 286.264 306.525 285.976C306.258 285.688 305.874 285.544 305.373 285.544Z" fill="white"/>
<path d="M21.0862 6.9419C22.401 6.9419 23.537 7.18987 24.4943 7.6858C25.4631 8.1702 26.2012 8.86797 26.7087 9.7791C27.2277 10.6902 27.4872 11.7628 27.4872 12.9969C27.4872 14.231 27.2277 15.3036 26.7087 16.2147C26.2012 17.1143 25.4631 17.8063 24.4943 18.2907C23.537 18.7636 22.401 19 21.0862 19H17.3321V6.9419H21.0862ZM21.0862 17.7025C22.6432 17.7025 23.8311 17.2931 24.65 16.4742C25.4689 15.6438 25.8783 14.4847 25.8783 12.9969C25.8783 11.4976 25.4631 10.3269 24.6327 9.485C23.8138 8.64307 22.6317 8.2221 21.0862 8.2221H18.9064V17.7025H21.0862Z" fill="black"/>
<path d="M92.1554 19.1211C91.3596 19.1211 90.6445 18.9827 90.0102 18.7059C89.3874 18.4176 88.8972 18.0254 88.5397 17.5295C88.1822 17.022 87.9976 16.4396 87.9861 15.7822H89.6642C89.7219 16.3473 89.9525 16.826 90.3562 17.2181C90.7714 17.5987 91.3711 17.789 92.1554 17.789C92.9051 17.789 93.4933 17.6045 93.92 17.2354C94.3583 16.8548 94.5774 16.3704 94.5774 15.7822C94.5774 15.3209 94.4505 14.946 94.1968 14.6577C93.9431 14.3694 93.6259 14.1502 93.2453 14.0003C92.8647 13.8504 92.3515 13.6889 91.7056 13.5159C90.9098 13.3083 90.2697 13.1007 89.7853 12.8931C89.3124 12.6855 88.903 12.3626 88.557 11.9243C88.2225 11.4745 88.0553 10.8748 88.0553 10.1251C88.0553 9.4677 88.2225 8.88527 88.557 8.3778C88.8915 7.87033 89.3586 7.4782 89.9583 7.2014C90.5696 6.9246 91.2673 6.7862 92.0516 6.7862C93.1819 6.7862 94.1045 7.06877 94.8196 7.6339C95.5462 8.19903 95.9556 8.9487 96.0479 9.8829H94.3179C94.2602 9.42157 94.018 9.0179 93.5913 8.6719C93.1646 8.31437 92.5994 8.1356 91.8959 8.1356C91.2385 8.1356 90.7022 8.3086 90.287 8.6546C89.8718 8.98907 89.6642 9.46193 89.6642 10.0732C89.6642 10.5115 89.7853 10.869 90.0275 11.1458C90.2812 11.4226 90.5869 11.636 90.9444 11.7859C91.3135 11.9243 91.8267 12.0858 92.4841 12.2703C93.2799 12.4894 93.92 12.7086 94.4044 12.9277C94.8888 13.1353 95.304 13.464 95.65 13.9138C95.996 14.3521 96.169 14.9518 96.169 15.713C96.169 16.3012 96.0133 16.8548 95.7019 17.3738C95.3905 17.8928 94.9292 18.3138 94.3179 18.6367C93.7066 18.9596 92.9858 19.1211 92.1554 19.1211Z" fill="black"/>
<path d="M165.754 6.9419V8.2221H162.467V19H160.892V8.2221H157.588V6.9419H165.754Z" fill="black"/>
<path d="M235.003 21.2836L232.598 18.8789C232.01 19.0404 231.41 19.1211 230.799 19.1211C229.68 19.1211 228.659 18.8616 227.737 18.3426C226.814 17.8121 226.082 17.0797 225.54 16.1455C225.009 15.1998 224.744 14.1387 224.744 12.9623C224.744 11.7859 225.009 10.7306 225.54 9.7964C226.082 8.85067 226.814 8.1183 227.737 7.5993C228.659 7.06877 229.68 6.8035 230.799 6.8035C231.929 6.8035 232.956 7.06877 233.878 7.5993C234.801 8.1183 235.528 8.8449 236.058 9.7791C236.589 10.7133 236.854 11.7744 236.854 12.9623C236.854 14.1156 236.6 15.1536 236.093 16.0763C235.585 16.999 234.887 17.7256 233.999 18.2561L237.044 21.2836H235.003ZM226.353 12.9623C226.353 13.9196 226.543 14.7615 226.924 15.4881C227.316 16.2147 227.846 16.7741 228.515 17.1662C229.196 17.5583 229.957 17.7544 230.799 17.7544C231.641 17.7544 232.396 17.5583 233.065 17.1662C233.746 16.7741 234.276 16.2147 234.657 15.4881C235.049 14.7615 235.245 13.9196 235.245 12.9623C235.245 11.9935 235.049 11.1516 234.657 10.4365C234.276 9.7099 233.751 9.15053 233.083 8.7584C232.414 8.36627 231.652 8.1702 230.799 8.1702C229.945 8.1702 229.184 8.36627 228.515 8.7584C227.846 9.15053 227.316 9.7099 226.924 10.4365C226.543 11.1516 226.353 11.9935 226.353 12.9623Z" fill="black"/>
<path d="M305.003 21.2836L302.598 18.8789C302.01 19.0404 301.41 19.1211 300.799 19.1211C299.68 19.1211 298.659 18.8616 297.737 18.3426C296.814 17.8121 296.082 17.0797 295.54 16.1455C295.009 15.1998 294.744 14.1387 294.744 12.9623C294.744 11.7859 295.009 10.7306 295.54 9.7964C296.082 8.85067 296.814 8.1183 297.737 7.5993C298.659 7.06877 299.68 6.8035 300.799 6.8035C301.929 6.8035 302.956 7.06877 303.878 7.5993C304.801 8.1183 305.528 8.8449 306.058 9.7791C306.589 10.7133 306.854 11.7744 306.854 12.9623C306.854 14.1156 306.6 15.1536 306.093 16.0763C305.585 16.999 304.887 17.7256 303.999 18.2561L307.044 21.2836H305.003ZM296.353 12.9623C296.353 13.9196 296.543 14.7615 296.924 15.4881C297.316 16.2147 297.846 16.7741 298.515 17.1662C299.196 17.5583 299.957 17.7544 300.799 17.7544C301.641 17.7544 302.396 17.5583 303.065 17.1662C303.746 16.7741 304.276 16.2147 304.657 15.4881C305.049 14.7615 305.245 13.9196 305.245 12.9623C305.245 11.9935 305.049 11.1516 304.657 10.4365C304.276 9.7099 303.751 9.15053 303.083 8.7584C302.414 8.36627 301.652 8.1702 300.799 8.1702C299.945 8.1702 299.184 8.36627 298.515 8.7584C297.846 9.15053 297.316 9.7099 296.924 10.4365C296.543 11.1516 296.353 11.9935 296.353 12.9623Z" fill="black"/>
<path d="M372.155 19.1211C371.36 19.1211 370.645 18.9827 370.01 18.7059C369.387 18.4176 368.897 18.0254 368.54 17.5295C368.182 17.022 367.998 16.4396 367.986 15.7822H369.664C369.722 16.3473 369.953 16.826 370.356 17.2181C370.771 17.5987 371.371 17.789 372.155 17.789C372.905 17.789 373.493 17.6045 373.92 17.2354C374.358 16.8548 374.577 16.3704 374.577 15.7822C374.577 15.3209 374.451 14.946 374.197 14.6577C373.943 14.3694 373.626 14.1502 373.245 14.0003C372.865 13.8504 372.351 13.6889 371.706 13.5159C370.91 13.3083 370.27 13.1007 369.785 12.8931C369.312 12.6855 368.903 12.3626 368.557 11.9243C368.223 11.4745 368.055 10.8748 368.055 10.1251C368.055 9.4677 368.223 8.88527 368.557 8.3778C368.891 7.87033 369.359 7.4782 369.958 7.2014C370.57 6.9246 371.267 6.7862 372.052 6.7862C373.182 6.7862 374.105 7.06877 374.82 7.6339C375.546 8.19903 375.956 8.9487 376.048 9.8829H374.318C374.26 9.42157 374.018 9.0179 373.591 8.6719C373.165 8.31437 372.599 8.1356 371.896 8.1356C371.239 8.1356 370.702 8.3086 370.287 8.6546C369.872 8.98907 369.664 9.46193 369.664 10.0732C369.664 10.5115 369.785 10.869 370.028 11.1458C370.281 11.4226 370.587 11.636 370.944 11.7859C371.313 11.9243 371.827 12.0858 372.484 12.2703C373.28 12.4894 373.92 12.7086 374.404 12.9277C374.889 13.1353 375.304 13.464 375.65 13.9138C375.996 14.3521 376.169 14.9518 376.169 15.713C376.169 16.3012 376.013 16.8548 375.702 17.3738C375.39 17.8928 374.929 18.3138 374.318 18.6367C373.707 18.9596 372.986 19.1211 372.155 19.1211Z" fill="black"/>
<path d="M442.155 19.1211C441.36 19.1211 440.645 18.9827 440.01 18.7059C439.387 18.4176 438.897 18.0254 438.54 17.5295C438.182 17.022 437.998 16.4396 437.986 15.7822H439.664C439.722 16.3473 439.953 16.826 440.356 17.2181C440.771 17.5987 441.371 17.789 442.155 17.789C442.905 17.789 443.493 17.6045 443.92 17.2354C444.358 16.8548 444.577 16.3704 444.577 15.7822C444.577 15.3209 444.451 14.946 444.197 14.6577C443.943 14.3694 443.626 14.1502 443.245 14.0003C442.865 13.8504 442.351 13.6889 441.706 13.5159C440.91 13.3083 440.27 13.1007 439.785 12.8931C439.312 12.6855 438.903 12.3626 438.557 11.9243C438.223 11.4745 438.055 10.8748 438.055 10.1251C438.055 9.4677 438.223 8.88527 438.557 8.3778C438.891 7.87033 439.359 7.4782 439.958 7.2014C440.57 6.9246 441.267 6.7862 442.052 6.7862C443.182 6.7862 444.105 7.06877 444.82 7.6339C445.546 8.19903 445.956 8.9487 446.048 9.8829H444.318C444.26 9.42157 444.018 9.0179 443.591 8.6719C443.165 8.31437 442.599 8.1356 441.896 8.1356C441.239 8.1356 440.702 8.3086 440.287 8.6546C439.872 8.98907 439.664 9.46193 439.664 10.0732C439.664 10.5115 439.785 10.869 440.028 11.1458C440.281 11.4226 440.587 11.636 440.944 11.7859C441.313 11.9243 441.827 12.0858 442.484 12.2703C443.28 12.4894 443.92 12.7086 444.404 12.9277C444.889 13.1353 445.304 13.464 445.65 13.9138C445.996 14.3521 446.169 14.9518 446.169 15.713C446.169 16.3012 446.013 16.8548 445.702 17.3738C445.39 17.8928 444.929 18.3138 444.318 18.6367C443.707 18.9596 442.986 19.1211 442.155 19.1211Z" fill="black"/>
</svg>
