<svg width="34" height="34" viewBox="0 0 34 34" fill="none" xmlns="http://www.w3.org/2000/svg">
<path d="M33.1733 0.4228C33.0556 0.293504 32.913 0.189408 32.7539 0.116803C32.5949 0.0441977 32.4228 0.00459107 32.248 0.000375978C32.0732 -0.00383912 31.8994 0.0274248 31.7371 0.092279C31.5747 0.157133 31.4272 0.254231 31.3034 0.377704L30.3073 1.36901C30.1866 1.48982 30.1187 1.65362 30.1187 1.8244C30.1187 1.99519 30.1866 2.15899 30.3073 2.2798L31.2205 3.19138C31.2803 3.25152 31.3515 3.29924 31.4298 3.33181C31.5082 3.36437 31.5922 3.38113 31.6771 3.38113C31.7619 3.38113 31.8459 3.36437 31.9243 3.33181C32.0027 3.29924 32.0738 3.25152 32.1337 3.19138L33.1049 2.22504C33.5961 1.73461 33.642 0.935769 33.1733 0.4228ZM28.2933 3.38224L13.7562 17.8935C13.668 17.9813 13.604 18.0903 13.5702 18.21L12.8977 20.2128C12.8816 20.2671 12.8805 20.3248 12.8944 20.3797C12.9084 20.4347 12.9369 20.4848 12.977 20.5249C13.0171 20.565 13.0672 20.5935 13.1222 20.6074C13.1771 20.6214 13.2348 20.6202 13.2891 20.6041L15.2903 19.9317C15.41 19.8979 15.519 19.8338 15.6067 19.7457L30.118 5.20702C30.2523 5.07133 30.3276 4.88815 30.3276 4.69727C30.3276 4.50639 30.2523 4.32321 30.118 4.18752L29.3168 3.38224C29.1809 3.24676 28.9969 3.17068 28.805 3.17068C28.6131 3.17068 28.4291 3.24676 28.2933 3.38224Z" fill="#2AFAFD"/>
<path d="M27.2461 11.7298L17.4305 21.5648C17.0511 21.945 16.5848 22.2272 16.0719 22.387L13.9862 23.0852C13.4913 23.225 12.968 23.2302 12.4703 23.1004C11.9726 22.9707 11.5185 22.7105 11.1548 22.3468C10.7911 21.9831 10.5309 21.529 10.4011 21.0313C10.2714 20.5336 10.2766 20.0103 10.4164 19.5153L11.1146 17.4296C11.2739 16.9169 11.5555 16.4507 11.9352 16.0711L21.7702 6.25383C21.8603 6.16378 21.9217 6.04902 21.9467 5.92406C21.9716 5.7991 21.9589 5.66955 21.9102 5.55181C21.8615 5.43406 21.779 5.3334 21.6731 5.26255C21.5671 5.19171 21.4426 5.15387 21.3152 5.15381H4.50962C3.31359 5.15381 2.16655 5.62893 1.32084 6.47464C0.475119 7.32036 0 8.4674 0 9.66342V28.9903C0 30.1864 0.475119 31.3334 1.32084 32.1791C2.16655 33.0248 3.31359 33.5 4.50962 33.5H23.8365C25.0326 33.5 26.1796 33.0248 27.0253 32.1791C27.871 31.3334 28.3462 30.1864 28.3462 28.9903V12.1848C28.3461 12.0574 28.3083 11.9328 28.2374 11.8269C28.1666 11.721 28.0659 11.6385 27.9482 11.5898C27.8304 11.5411 27.7009 11.5284 27.5759 11.5533C27.4509 11.5782 27.3362 11.6396 27.2461 11.7298Z" fill="#2AFAFD"/>
</svg>
