<svg width="93" height="93" viewBox="0 0 93 93" fill="none" xmlns="http://www.w3.org/2000/svg">
<path d="M91.4808 83.443L71.2197 63.1734C77.2947 55.257 80.1309 45.3262 79.1531 35.3956C78.1753 25.4649 73.4566 16.278 65.9544 9.69849C58.4521 3.11895 48.728 -0.360529 38.7547 -0.0341247C28.7813 0.29228 19.3056 4.40013 12.2496 11.4561C5.19358 18.5121 1.08574 27.9879 0.759332 37.9612C0.432928 47.9346 3.91241 57.6587 10.4919 65.1609C17.0715 72.6632 26.2584 77.3818 36.189 78.3596C46.1197 79.3374 56.0505 76.5012 63.9669 70.4263L84.245 90.7087C84.7213 91.1849 85.2866 91.5627 85.9088 91.8204C86.5311 92.0782 87.198 92.2108 87.8715 92.2108C88.5449 92.2108 89.2118 92.0782 89.8341 91.8204C90.4563 91.5627 91.0217 91.1849 91.4979 90.7087C91.9741 90.2325 92.3519 89.6671 92.6096 89.0449C92.8673 88.4227 93 87.7558 93 87.0823C93 86.4088 92.8673 85.7419 92.6096 85.1197C92.3519 84.4974 91.9741 83.9321 91.4979 83.4558L91.4808 83.443ZM11.0637 39.2817C11.0637 33.5437 12.7652 27.9347 15.953 23.1638C19.1408 18.3929 23.6718 14.6744 28.9729 12.4786C34.2741 10.2828 40.1073 9.70827 45.735 10.8277C51.3626 11.9471 56.532 14.7102 60.5893 18.7675C64.6466 22.8248 67.4097 27.9941 68.5291 33.6218C69.6485 39.2495 69.074 45.0827 66.8782 50.3839C64.6824 55.685 60.9639 60.216 56.193 63.4038C51.4221 66.5916 45.813 68.2931 40.0751 68.2931C32.3832 68.2852 25.0087 65.2261 19.5697 59.7871C14.1307 54.3481 11.0716 46.9736 11.0637 39.2817Z" fill="black"/>
</svg>
