<svg width="28" height="28" viewBox="0 0 28 28" fill="none" xmlns="http://www.w3.org/2000/svg">
<path d="M16 28V23.2167L23.3667 14.6611C23.5667 14.4278 23.7889 14.2593 24.0333 14.1556C24.2778 14.0519 24.5222 14 24.7667 14C25.0333 14 25.2889 14.0586 25.5333 14.1758C25.7778 14.293 26 14.4677 26.2 14.7L27.4333 16.1389C27.6111 16.3722 27.7502 16.6315 27.8507 16.9167C27.9511 17.2019 28.0009 17.487 28 17.7722C27.9991 18.0574 27.9547 18.3493 27.8667 18.648C27.7787 18.9467 27.6342 19.2121 27.4333 19.4444L20.1 28H16ZM24.7667 19.2889L26 17.7722L24.7667 16.3333L23.5 17.8111L24.7667 19.2889ZM2.66667 24.8889C1.93333 24.8889 1.30578 24.5845 0.784 23.9758C0.262222 23.367 0.000888888 22.6344 0 21.7778V3.11111C0 2.25556 0.261333 1.52341 0.784 0.914666C1.30667 0.305926 1.93422 0.00103704 2.66667 0H10.6667L13.3333 3.11111H24C24.7333 3.11111 25.3613 3.416 25.884 4.02578C26.4067 4.63556 26.6675 5.3677 26.6667 6.22222V11.3556C26.3555 11.2 26.0333 11.0833 25.7 11.0056C25.3667 10.9278 25.0333 10.8889 24.7 10.8889C24.0778 10.8889 23.4947 11.0185 22.9507 11.2778C22.4067 11.537 21.912 11.9259 21.4667 12.4444L13.3333 21.9333V24.8889H2.66667Z" fill="#FF64E0"/>
</svg>
