<svg width="53" height="34" viewBox="0 0 53 34" fill="none" xmlns="http://www.w3.org/2000/svg">
<path d="M35.8929 14.3571C39.865 14.3571 43.0475 11.1507 43.0475 7.17857C43.0475 3.20643 39.865 0 35.8929 0C31.9207 0 28.7143 3.20643 28.7143 7.17857C28.7143 11.1507 31.9207 14.3571 35.8929 14.3571ZM16.75 14.3571C20.7221 14.3571 23.9046 11.1507 23.9046 7.17857C23.9046 3.20643 20.7221 0 16.75 0C12.7779 0 9.57143 3.20643 9.57143 7.17857C9.57143 11.1507 12.7779 14.3571 16.75 14.3571ZM16.75 19.1429C11.1746 19.1429 0 21.9425 0 27.5179V33.5H33.5V27.5179C33.5 21.9425 22.3254 19.1429 16.75 19.1429ZM35.8929 19.1429C35.1989 19.1429 34.4093 19.1907 33.5718 19.2625C36.3475 21.2725 38.2857 23.9764 38.2857 27.5179V33.5H52.6429V27.5179C52.6429 21.9425 41.4682 19.1429 35.8929 19.1429Z" fill="#1A3DBE"/>
</svg>
