<svg width="132" height="127" viewBox="0 0 132 127" fill="none" xmlns="http://www.w3.org/2000/svg">
<path d="M0 79.3757V127H66V79.3757H49.5V63.501H16.5V79.3757H0ZM41.25 79.3757H24.75V71.4383H41.25V79.3757ZM8.25 103.188H16.5V111.125H24.75V103.188H41.25V111.125H49.5V103.188H57.75V119.063H8.25V103.188ZM8.25 87.3131H57.75V95.2505H8.25V87.3131ZM31.1309 55.5636C33.4512 53.0418 36.2012 51.0988 39.3809 49.7346C42.5605 48.3703 45.9336 47.6676 49.5 47.6262C52.9375 47.6262 56.1387 48.2463 59.1035 49.4865C62.0684 50.7267 64.6895 52.4217 66.9668 54.5714C69.2441 56.7211 71.0273 59.2636 72.3164 62.1987C73.6055 65.1339 74.25 68.2138 74.25 71.4383C74.25 75.2417 75.1309 78.8176 76.8926 82.1662C78.6543 85.5148 81.1465 88.326 84.3691 90.5997C82.4355 91.5505 80.6309 92.646 78.9551 93.8862C77.2793 95.1265 75.7109 96.532 74.25 98.103V119.063C74.25 115.797 74.8945 112.717 76.1836 109.823C77.4727 106.929 79.2344 104.407 81.4688 102.258C83.7031 100.108 86.3457 98.3924 89.3965 97.1108C92.4473 95.8293 95.6484 95.2091 99 95.2505C102.438 95.2505 105.639 95.8706 108.604 97.1108C111.568 98.351 114.189 100.046 116.467 102.196C118.744 104.345 120.527 106.888 121.816 109.823C123.105 112.758 123.75 115.838 123.75 119.063H132C132 116.045 131.57 113.13 130.711 110.319C129.852 107.508 128.627 104.841 127.037 102.32C125.447 99.7979 123.514 97.5656 121.236 95.6226C118.959 93.6795 116.424 92.0053 113.631 90.5997C116.811 88.3673 119.281 85.5768 121.043 82.2282C122.805 78.8796 123.707 75.283 123.75 71.4383C123.75 68.1724 123.105 65.0926 121.816 62.1987C120.527 59.3049 118.766 56.7831 116.531 54.6334C114.297 52.4837 111.676 50.7681 108.668 49.4865C105.66 48.205 102.438 47.5849 99 47.6262C95.0469 47.6262 91.3301 48.4737 87.8496 50.1687C84.3691 51.8636 81.4473 54.2614 79.084 57.3619C77.4512 54.2614 75.3672 51.4916 72.832 49.0525C70.2969 46.6134 67.3965 44.5877 64.1309 42.9754C67.3105 40.743 69.7812 37.9525 71.543 34.604C73.3047 31.2554 74.207 27.6587 74.25 23.8141C74.25 20.5482 73.6055 17.4683 72.3164 14.5745C71.0273 11.6806 69.2656 9.15886 67.0312 7.00916C64.7969 4.85945 62.1758 3.14382 59.168 1.86226C56.1602 0.580705 52.9375 -0.0394027 49.5 0.00193784C46.1055 0.00193784 42.9043 0.622046 39.8965 1.86226C36.8887 3.10248 34.2676 4.79744 32.0332 6.94714C29.7988 9.09685 28.0156 11.6393 26.6836 14.5745C25.3516 17.5096 24.707 20.5895 24.75 23.8141C24.75 27.6174 25.6309 31.1934 27.3926 34.5419C29.1543 37.8905 31.6465 40.7017 34.8691 42.9754C31.9473 44.381 29.3047 46.138 26.9414 48.2463C24.5781 50.3547 22.5801 52.7938 20.9473 55.5636H31.1309ZM99 87.3131C96.7227 87.3131 94.5957 86.8997 92.6191 86.0729C90.6426 85.2461 88.8809 84.1092 87.334 82.6623C85.7871 81.2154 84.6055 79.5411 83.7891 77.6394C82.9727 75.7378 82.543 73.6707 82.5 71.4383C82.5 69.2473 82.9297 67.2009 83.7891 65.2993C84.6484 63.3976 85.8301 61.7027 87.334 60.2144C88.8379 58.7261 90.5781 57.5893 92.5547 56.8038C94.5312 56.0183 96.6797 55.6049 99 55.5636C101.277 55.5636 103.404 55.977 105.381 56.8038C107.357 57.6306 109.119 58.7675 110.666 60.2144C112.213 61.6613 113.395 63.3356 114.211 65.2373C115.027 67.1389 115.457 69.206 115.5 71.4383C115.5 73.6294 115.07 75.6758 114.211 77.5774C113.352 79.4791 112.17 81.174 110.666 82.6623C109.162 84.1506 107.422 85.2874 105.445 86.0729C103.469 86.8584 101.32 87.2718 99 87.3131ZM66 23.8141C66 26.0051 65.5703 28.0515 64.7109 29.9531C63.8516 31.8548 62.6699 33.5498 61.166 35.038C59.6621 36.5263 57.9219 37.6631 55.9453 38.4486C53.9688 39.2341 51.8203 39.6475 49.5 39.6888C47.2227 39.6888 45.0957 39.2754 43.1191 38.4486C41.1426 37.6218 39.3809 36.4849 37.834 35.038C36.2871 33.5911 35.1055 31.9168 34.2891 30.0152C33.4727 28.1135 33.043 26.0465 33 23.8141C33 21.623 33.4297 19.5767 34.2891 17.675C35.1484 15.7733 36.3301 14.0784 37.834 12.5901C39.3379 11.1019 41.0781 9.965 43.0547 9.17953C45.0312 8.39406 47.1797 7.98066 49.5 7.93932C51.7773 7.93932 53.9043 8.35272 55.8809 9.17953C57.8574 10.0063 59.6191 11.1432 61.166 12.5901C62.7129 14.037 63.8945 15.7113 64.7109 17.613C65.5273 19.5147 65.957 21.5817 66 23.8141Z" fill="black"/>
</svg>
