<svg width="67" height="67" viewBox="0 0 67 67" fill="none" xmlns="http://www.w3.org/2000/svg">
<path d="M44.6667 11.1668H53.0417C54.5225 11.1668 55.9426 11.7551 56.9897 12.8021C58.0368 13.8492 58.625 15.2694 58.625 16.7502V19.5418M44.6667 55.8335H53.0417C54.5225 55.8335 55.9426 55.2452 56.9897 54.1982C58.0368 53.1511 58.625 51.7309 58.625 50.2502V47.4585M58.6278 33.5002H44.6695M44.6695 33.5002L50.2528 27.9168M44.6695 33.5002L50.2528 39.0835M12.3531 54.2367L29.1031 59.2617C29.9369 59.5119 30.8177 59.5638 31.6752 59.413C32.5326 59.2623 33.3429 58.9131 34.0413 58.3934C34.7398 57.8737 35.307 57.1979 35.6977 56.4199C36.0885 55.642 36.2919 54.7834 36.2917 53.9128V13.0875C36.2919 12.2169 36.0885 11.3584 35.6977 10.5804C35.307 9.80241 34.7398 9.12659 34.0413 8.6069C33.3429 8.0872 32.5326 7.73803 31.6752 7.58728C30.8177 7.43652 29.9369 7.48836 29.1031 7.73865L12.3531 12.7637C11.203 13.1089 10.1949 13.8157 9.47823 14.7792C8.76162 15.7428 8.37474 16.9117 8.375 18.1125V48.8878C8.37474 50.0886 8.76162 51.2575 9.47823 52.2211C10.1949 53.1846 11.203 53.8914 12.3531 54.2367Z" stroke="#132F4D" stroke-width="5.58333" stroke-linecap="round" stroke-linejoin="round"/>
</svg>
