<svg width="117" height="117" viewBox="0 0 117 117" fill="none" xmlns="http://www.w3.org/2000/svg">
<g clip-path="url(#clip0_482_18)">
<path d="M31.9032 8.11232C31.6484 7.85668 31.3457 7.65384 31.0124 7.51543C30.6791 7.37703 30.3217 7.30579 29.9608 7.30579C29.5999 7.30579 29.2425 7.37703 28.9092 7.51543C28.5759 7.65384 28.2732 7.85668 28.0184 8.11232L13.4665 22.5796L8.27924 17.5249C8.02448 17.2692 7.72177 17.0664 7.38845 16.928C7.05513 16.7896 6.69777 16.7183 6.33686 16.7183C5.97595 16.7183 5.61859 16.7896 5.28527 16.928C4.95195 17.0664 4.64924 17.2692 4.39448 17.5249L0.806782 21.1171C0.551137 21.3719 0.348296 21.6746 0.209893 22.0079C0.0714888 22.3413 0.000244141 22.6986 0.000244141 23.0595C0.000244141 23.4204 0.0714888 23.7778 0.209893 24.1111C0.348296 24.4444 0.551137 24.7472 0.806782 25.0019L11.6818 35.8336C12.2247 36.3495 12.945 36.6373 13.6939 36.6373C14.4429 36.6373 15.1632 36.3495 15.706 35.8336L19.2686 32.2641L35.7674 15.7676C36.2814 15.2531 36.5719 14.5567 36.5758 13.8294C36.5796 13.1022 36.2965 12.4027 35.788 11.8828L31.9032 8.11232ZM31.9032 44.4897C31.6484 44.2341 31.3457 44.0312 31.0124 43.8928C30.6791 43.7544 30.3217 43.6832 29.9608 43.6832C29.5999 43.6832 29.2425 43.7544 28.9092 43.8928C28.5759 44.0312 28.2732 44.2341 28.0184 44.4897L13.4665 59.0507L8.27924 54.0005C8.02448 53.7449 7.72177 53.5421 7.38845 53.4037C7.05513 53.2653 6.69777 53.194 6.33686 53.194C5.97595 53.194 5.61859 53.2653 5.28527 53.4037C4.95195 53.5421 4.64924 53.7449 4.39448 54.0005L0.806782 57.586C0.551137 57.8407 0.348296 58.1434 0.209893 58.4768C0.0714888 58.8101 0.000244141 59.1674 0.000244141 59.5283C0.000244141 59.8893 0.0714888 60.2466 0.209893 60.5799C0.348296 60.9132 0.551137 61.216 0.806782 61.4707L11.6544 72.3252C12.1969 72.8411 12.9168 73.1287 13.6654 73.1287C14.4139 73.1287 15.1338 72.8411 15.6763 72.3252L19.264 68.7398L35.7628 52.2364C36.2749 51.7255 36.5644 51.033 36.5683 50.3097C36.5721 49.5863 36.29 48.8908 35.7834 48.3745L31.9032 44.4897ZM14.6251 84.0938C8.57174 84.0938 3.52155 89.0069 3.52155 95.0625C3.52155 101.118 8.57631 106.031 14.6251 106.031C17.5342 106.031 20.3242 104.876 22.3812 102.819C24.4382 100.762 25.5939 97.9716 25.5939 95.0625C25.5939 92.1534 24.4382 89.3635 22.3812 87.3064C20.3242 85.2494 17.5342 84.0938 14.6251 84.0938ZM113.344 87.75H47.5314C46.5617 87.75 45.6317 88.1352 44.946 88.8209C44.2603 89.5066 43.8751 90.4366 43.8751 91.4063V98.7188C43.8751 99.6885 44.2603 100.618 44.946 101.304C45.6317 101.99 46.5617 102.375 47.5314 102.375H113.344C114.314 102.375 115.244 101.99 115.929 101.304C116.615 100.618 117 99.6885 117 98.7188V91.4063C117 90.4366 116.615 89.5066 115.929 88.8209C115.244 88.1352 114.314 87.75 113.344 87.75ZM113.344 14.625H47.5314C46.5617 14.625 45.6317 15.0102 44.946 15.6959C44.2603 16.3816 43.8751 17.3116 43.8751 18.2813V25.5938C43.8751 26.5635 44.2603 27.4934 44.946 28.1791C45.6317 28.8648 46.5617 29.25 47.5314 29.25H113.344C114.314 29.25 115.244 28.8648 115.929 28.1791C116.615 27.4934 117 26.5635 117 25.5938V18.2813C117 17.3116 116.615 16.3816 115.929 15.6959C115.244 15.0102 114.314 14.625 113.344 14.625ZM113.344 51.1875H47.5314C46.5617 51.1875 45.6317 51.5727 44.946 52.2584C44.2603 52.9441 43.8751 53.8741 43.8751 54.8438V62.1563C43.8751 63.126 44.2603 64.056 44.946 64.7416C45.6317 65.4273 46.5617 65.8125 47.5314 65.8125H113.344C114.314 65.8125 115.244 65.4273 115.929 64.7416C116.615 64.056 117 63.126 117 62.1563V54.8438C117 53.8741 116.615 52.9441 115.929 52.2584C115.244 51.5727 114.314 51.1875 113.344 51.1875Z" fill="black"/>
</g>
<defs>
<clipPath id="clip0_482_18">
<rect width="117" height="117" fill="white"/>
</clipPath>
</defs>
</svg>
